 http://bayimg.com/pageHAaea
ExclusiveTeenPorn_Pussy_Fucking_Kitana_720p.wmv
Format                                   : Windows Media
File size                                : 646 MiB
Duration                                 : 21mn 49s
Overall bit rate mode                    : Variable
Overall bit rate                         : 4 140 Kbps
Maximum Overall bit rate                 : 10.2 Mbps
Encoded date                             : UTC 2011-12-28 15:34:15.238

Video
ID                                       : 2
Format                                   : VC-1
Format profile                           : MP@HL
Codec ID                                 : WMV3
Codec ID/Info                            : Windows Media Video 9
Codec ID/Hint                            : WMV3
Description of the codec                 : Windows Media Video 9 - Professional
Duration                                 : 21mn 49s
Bit rate mode                            : Variable
Bit rate                                 : 4 000 Kbps
Width                                    : 1 280 pixels
Height                                   : 720 pixels
Display aspect ratio                     : 16:9
Frame rate                               : 25.000 fps
Bit depth                                : 8 bits
Scan type                                : Progressive
Compression mode                         : Lossy
Bits/(Pixel*Frame)                       : 0.174
Stream size                              : 624 MiB (97%)
NumberOfFrames                           : 32722

Audio
ID                                       : 1
Format                                   : WMA
Format profile                           : Pro
Codec ID                                 : 162
Codec ID/Info                            : Windows Media Audio
Description of the codec                 : Windows Media Audio 10 Professional - 128 kbps, 44 kHz, 2 channel 16 bit 1-pass CBR
Duration                                 : 21mn 49s
Bit rate mode                            : Constant
Bit rate                                 : 128 Kbps
Channel(s)                               : 2 channels
Sampling rate                            : 44.1 KHz
Bit depth                                : 16 bits
Stream size                              : 20.0 MiB (3%)
NumberOfFrames                           : 3525

